{
  "accessors": [
    {
      "bufferView": 2,
      "componentType": 5126,
      "count": 1711,
      "max": [
        114.04060363769531,
        76.11129760742188,
        373.1842041015625
      ],
      "min": [
        -116.36329650878906,
        -265.2217102050781,
        1.4903000593185425
      ],
      "type": "VEC3"
    },
    {
      "bufferView": 2,
      "byteOffset": 20532,
      "componentType": 5126,
      "count": 1711,
      "max": [
        0.9987277388572693,
        0.9997056126594543,
        0.9982680082321167
      ],
      "min": [
        -0.998125433921814,
        -0.9952728152275085,
        -0.9989476203918457
      ],
      "type": "VEC3"
    },
    {
      "bufferView": 1,
      "componentType": 5126,
      "count": 1711,
      "max": [
        0.9922000169754028,
        0.9927999973297119
      ],
      "min": [
        0.002099999925121665,
        0.007300000172108412
      ],
      "type": "VEC2"
    },
    {
      "bufferView": 0,
      "componentType": 5125,
      "count": 7836,
      "type": "SCALAR"
    },
    {
      "bufferView": 2,
      "byteOffset": 41064,
      "componentType": 5126,
      "count": 4,
      "max": [
        339.823486328125,
        330.7528991699219,
        0.0
      ],
      "min": [
        -313.8662109375,
        -322.9367980957031,
        0.0
      ],
      "type": "VEC3"
    },
    {
      "bufferView": 2,
      "byteOffset": 41112,
      "componentType": 5126,
      "count": 4,
      "max": [
        0.0,
        0.0,
        1.0
      ],
      "min": [
        0.0,
        0.0,
        1.0
      ],
      "type": "VEC3"
    },
    {
      "bufferView": 1,
      "byteOffset": 13688,
      "componentType": 5126,
      "count": 4,
      "max": [
        1.0,
        1.0
      ],
      "min": [
        0.0,
        0.0
      ],
      "type": "VEC2"
    },
    {
      "bufferView": 0,
      "byteOffset": 31344,
      "componentType": 5125,
      "count": 6,
      "type": "SCALAR"
    },
    {
      "bufferView": 2,
      "byteOffset": 41160,
      "componentType": 5126,
      "count": 1203,
      "max": [
        76.36060333251953,
        110.06539916992188,
        114.19560241699219
      ],
      "min": [
        -128.92999267578125,
        -137.0133056640625,
        -15.887299537658691
      ],
      "type": "VEC3"
    },
    {
      "bufferView": 2,
      "byteOffset": 55596,
      "componentType": 5126,
      "count": 1203,
      "max": [
        0.9969887137413025,
        0.9997525811195374,
        0.9941048622131348
      ],
      "min": [
        -0.9998471140861511,
        -0.9980136156082153,
        -0.9999964237213135
      ],
      "type": "VEC3"
    },
    {
      "bufferView": 1,
      "byteOffset": 13720,
      "componentType": 5126,
      "count": 1203,
      "max": [
        0.8234000205993652,
        0.995199978351593
      ],
      "min": [
        0.005900000222027302,
        0.006300000008195639
      ],
      "type": "VEC2"
    },
    {
      "bufferView": 0,
      "byteOffset": 31368,
      "componentType": 5125,
      "count": 5412,
      "type": "SCALAR"
    },
    {
      "bufferView": 2,
      "byteOffset": 70032,
      "componentType": 5126,
      "count": 2057,
      "max": [
        107.48320007324219,
        111.58740234375,
        248.8531951904297
      ],
      "min": [
        -93.19280242919922,
        -164.84979248046875,
        14.89109992980957
      ],
      "type": "VEC3"
    },
    {
      "bufferView": 2,
      "byteOffset": 94716,
      "componentType": 5126,
      "count": 2057,
      "max": [
        0.9948784112930298,
        0.9923976063728333,
        0.9995259642601013
      ],
      "min": [
        -0.9979888200759888,
        -0.9994502663612366,
        -0.9996413588523865
      ],
      "type": "VEC3"
    },
    {
      "bufferView": 1,
      "byteOffset": 23344,
      "componentType": 5126,
      "count": 2057,
      "max": [
        0.9965000152587891,
        0.9818000197410583
      ],
      "min": [
        0.6525999903678894,
        0.008299999870359898
      ],
      "type": "VEC2"
    },
    {
      "bufferView": 0,
      "byteOffset": 53016,
      "componentType": 5125,
      "count": 8040,
      "type": "SCALAR"
    },
    {
      "bufferView": 2,
      "byteOffset": 119400,
      "componentType": 5126,
      "count": 497,
      "max": [
        98.4760971069336,
        169.09979248046875,
        143.14259338378906
      ],
      "min": [
        -101.70010375976563,
        -157.20309448242188,
        0.0
      ],
      "type": "VEC3"
    },
    {
      "bufferView": 2,
      "byteOffset": 125364,
      "componentType": 5126,
      "count": 497,
      "max": [
        0.9956029653549194,
        0.8392906785011292,
        1.0
      ],
      "min": [
        -0.9989823698997498,
        -0.9937008619308472,
        -0.895489513874054
      ],
      "type": "VEC3"
    },
    {
      "bufferView": 1,
      "byteOffset": 39800,
      "componentType": 5126,
      "count": 497,
      "max": [
        0.991100013256073,
        0.9830999970436096
      ],
      "min": [
        0.011699999682605267,
        0.014000000432133675
      ],
      "type": "VEC2"
    },
    {
      "bufferView": 0,
      "byteOffset": 85176,
      "componentType": 5125,
      "count": 2016,
      "type": "SCALAR"
    },
    {
      "bufferView": 2,
      "byteOffset": 131328,
      "componentType": 5126,
      "count": 325,
      "max": [
        171.42759704589844,
        -40.57630157470703,
        452.1954040527344
      ],
      "min": [
        -160.27439880371094,
        -308.6228942871094,
        288.6484069824219
      ],
      "type": "VEC3"
    },
    {
      "bufferView": 2,
      "byteOffset": 135228,
      "componentType": 5126,
      "count": 325,
      "max": [
        0.9983469247817993,
        0.9855346083641052,
        0.9923867583274841
      ],
      "min": [
        -0.9980437159538269,
        -0.9835212230682373,
        -0.9962761998176575
      ],
      "type": "VEC3"
    },
    {
      "bufferView": 1,
      "byteOffset": 43776,
      "componentType": 5126,
      "count": 325,
      "max": [
        0.9900000095367432,
        0.986299991607666
      ],
      "min": [
        0.14000000059604645,
        0.012299999594688416
      ],
      "type": "VEC2"
    },
    {
      "bufferView": 0,
      "byteOffset": 93240,
      "componentType": 5125,
      "count": 1674,
      "type": "SCALAR"
    },
    {
      "bufferView": 2,
      "byteOffset": 139128,
      "componentType": 5126,
      "count": 1138,
      "max": [
        149.625,
        271.73388671875,
        353.18280029296875
      ],
      "min": [
        -168.69869995117188,
        -299.7955017089844,
        -6.65910005569458
      ],
      "type": "VEC3"
    },
    {
      "bufferView": 2,
      "byteOffset": 152784,
      "componentType": 5126,
      "count": 1138,
      "max": [
        0.9989088177680969,
        0.995539665222168,
        1.0
      ],
      "min": [
        -0.9994972348213196,
        -0.9990988373756409,
        -0.9996114373207092
      ],
      "type": "VEC3"
    },
    {
      "bufferView": 1,
      "byteOffset": 46376,
      "componentType": 5126,
      "count": 1138,
      "max": [
        0.49410000443458557,
        0.9851999878883362
      ],
      "min": [
        0.028699999675154686,
        0.36329999566078186
      ],
      "type": "VEC2"
    },
    {
      "bufferView": 0,
      "byteOffset": 99936,
      "componentType": 5125,
      "count": 3210,
      "type": "SCALAR"
    }
  ],
  "asset": {
    "extras": {
      "author": "olmopotums (https://sketchfab.com/olmopotums)",
      "license": "CC-BY-4.0 (http://creativecommons.org/licenses/by/4.0/)",
      "source": "https://sketchfab.com/3d-models/patch-of-heaven-the-white-tree-c57f1d68456348238ecf40f80f3fb3be",
      "title": "Patch of Heaven - The White Tree"
    },
    "generator": "Sketchfab-12.66.0",
    "version": "2.0"
  },
  "bufferViews": [
    {
      "buffer": 0,
      "byteLength": 112776,
      "name": "floatBufferViews",
      "target": 34963
    },
    {
      "buffer": 0,
      "byteLength": 55480,
      "byteOffset": 112776,
      "byteStride": 8,
      "name": "floatBufferViews",
      "target": 34962
    },
    {
      "buffer": 0,
      "byteLength": 166440,
      "byteOffset": 168256,
      "byteStride": 12,
      "name": "floatBufferViews",
      "target": 34962
    }
  ],
  "buffers": [
    {
      "byteLength": 334696,
      "uri": "scene.bin"
    }
  ],
  "images": [
    {
      "uri": "textures/01___Default_baseColor.jpeg"
    },
    {
      "uri": "textures/Mat_A_baseColor.jpeg"
    },
    {
      "uri": "textures/Mat_B_baseColor.png"
    },
    {
      "uri": "textures/Mat_B_emissive.jpeg"
    },
    {
      "uri": "textures/Mat_D_baseColor.jpeg"
    },
    {
      "uri": "textures/Mat_E_baseColor.jpeg"
    },
    {
      "uri": "textures/Mat_F_baseColor.png"
    },
    {
      "uri": "textures/Mat_F_emissive.jpeg"
    }
  ],
  "materials": [
    {
      "doubleSided": true,
      "emissiveTexture": {
        "index": 0
      },
      "name": "01___Default",
      "pbrMetallicRoughness": {
        "baseColorTexture": {
          "index": 0
        },
        "metallicFactor": 0.0,
        "roughnessFactor": 0.6
      }
    },
    {
      "doubleSided": true,
      "emissiveTexture": {
        "index": 1
      },
      "name": "Mat_A",
      "pbrMetallicRoughness": {
        "baseColorTexture": {
          "index": 1
        },
        "metallicFactor": 0.0,
        "roughnessFactor": 0.6
      }
    },
    {
      "alphaMode": "BLEND",
      "doubleSided": true,
      "emissiveFactor": [
        0.30000000000000004,
        0.30000000000000004,
        0.30000000000000004
      ],
      "emissiveTexture": {
        "index": 3
      },
      "name": "Mat_B",
      "pbrMetallicRoughness": {
        "baseColorFactor": [
          1.0,
          1.0,
          1.0,
          0.95
        ],
        "baseColorTexture": {
          "index": 2
        },
        "metallicFactor": 0.0,
        "roughnessFactor": 0.6
      }
    },
    {
      "doubleSided": true,
      "emissiveTexture": {
        "index": 0
      },
      "name": "Mat_C",
      "pbrMetallicRoughness": {
        "baseColorTexture": {
          "index": 0
        },
        "metallicFactor": 0.0,
        "roughnessFactor": 0.6
      }
    },
    {
      "doubleSided": true,
      "name": "Mat_D",
      "pbrMetallicRoughness": {
        "baseColorTexture": {
          "index": 4
        },
        "metallicFactor": 0.0,
        "roughnessFactor": 0.6
      }
    },
    {
      "doubleSided": true,
      "emissiveTexture": {
        "index": 5
      },
      "name": "Mat_E",
      "pbrMetallicRoughness": {
        "baseColorTexture": {
          "index": 5
        },
        "metallicFactor": 0.0,
        "roughnessFactor": 0.6
      }
    },
    {
      "alphaCutoff": 0.12,
      "alphaMode": "MASK",
      "doubleSided": true,
      "emissiveFactor": [
        0.2,
        0.2,
        0.2
      ],
      "emissiveTexture": {
        "index": 7
      },
      "name": "Mat_F",
      "pbrMetallicRoughness": {
        "baseColorTexture": {
          "index": 6
        },
        "metallicFactor": 0.0,
        "roughnessFactor": 0.6
      }
    }
  ],
  "meshes": [
    {
      "name": "Object_0",
      "primitives": [
        {
          "attributes": {
            "NORMAL": 1,
            "POSITION": 0,
            "TEXCOORD_0": 2
          },
          "indices": 3,
          "material": 1,
          "mode": 4
        }
      ]
    },
    {
      "name": "Object_1",
      "primitives": [
        {
          "attributes": {
            "NORMAL": 5,
            "POSITION": 4,
            "TEXCOORD_0": 6
          },
          "indices": 7,
          "material": 2,
          "mode": 4
        }
      ]
    },
    {
      "name": "Object_2",
      "primitives": [
        {
          "attributes": {
            "NORMAL": 9,
            "POSITION": 8,
            "TEXCOORD_0": 10
          },
          "indices": 11,
          "material": 0,
          "mode": 4
        }
      ]
    },
    {
      "name": "Object_3",
      "primitives": [
        {
          "attributes": {
            "NORMAL": 13,
            "POSITION": 12,
            "TEXCOORD_0": 14
          },
          "indices": 15,
          "material": 3,
          "mode": 4
        }
      ]
    },
    {
      "name": "Object_4",
      "primitives": [
        {
          "attributes": {
            "NORMAL": 17,
            "POSITION": 16,
            "TEXCOORD_0": 18
          },
          "indices": 19,
          "material": 4,
          "mode": 4
        }
      ]
    },
    {
      "name": "Object_5",
      "primitives": [
        {
          "attributes": {
            "NORMAL": 21,
            "POSITION": 20,
            "TEXCOORD_0": 22
          },
          "indices": 23,
          "material": 5,
          "mode": 4
        }
      ]
    },
    {
      "name": "Object_6",
      "primitives": [
        {
          "attributes": {
            "NORMAL": 25,
            "POSITION": 24,
            "TEXCOORD_0": 26
          },
          "indices": 27,
          "material": 6,
          "mode": 4
        }
      ]
    }
  ],
  "nodes": [
    {
      "children": [
        1
      ],
      "matrix": [
        1.0,
        0.0,
        0.0,
        0.0,
        0.0,
        2.220446049250313e-16,
        -1.0,
        0.0,
        0.0,
        1.0,
        2.220446049250313e-16,
        0.0,
        0.0,
        0.0,
        0.0,
        1.0
      ],
      "name": "Sketchfab_model"
    },
    {
      "children": [
        2,
        3,
        4,
        5,
        6,
        7,
        8
      ],
      "name": "Export.obj.cleaner.gles"
    },
    {
      "mesh": 0,
      "name": "Object_2"
    },
    {
      "mesh": 1,
      "name": "Object_3"
    },
    {
      "mesh": 2,
      "name": "Object_4"
    },
    {
      "mesh": 3,
      "name": "Object_5"
    },
    {
      "mesh": 4,
      "name": "Object_6"
    },
    {
      "mesh": 5,
      "name": "Object_7"
    },
    {
      "mesh": 6,
      "name": "Object_8"
    }
  ],
  "samplers": [
    {
      "magFilter": 9729,
      "minFilter": 9987,
      "wrapS": 10497,
      "wrapT": 10497
    }
  ],
  "scene": 0,
  "scenes": [
    {
      "name": "Sketchfab_Scene",
      "nodes": [
        0
      ]
    }
  ],
  "textures": [
    {
      "sampler": 0,
      "source": 0
    },
    {
      "sampler": 0,
      "source": 1
    },
    {
      "sampler": 0,
      "source": 2
    },
    {
      "sampler": 0,
      "source": 3
    },
    {
      "sampler": 0,
      "source": 4
    },
    {
      "sampler": 0,
      "source": 5
    },
    {
      "sampler": 0,
      "source": 6
    },
    {
      "sampler": 0,
      "source": 7
    }
  ]
}
